<svg xmlns="http://www.w3.org/2000/svg" viewBox="0 0 52.39 49.98"><defs><style>.cls-1{fill:#8479fe;}.cls-2{fill:#000100;}.cls-3{fill:#fff;}</style></defs><g id="Слой_2" data-name="Слой 2"><g id="Layer_1" data-name="Layer 1"><rect class="cls-1" x="0.1" y="0.1" width="26" height="33" rx="1"/><path class="cls-2" d="M25.1,33.2H1.1A1.1,1.1,0,0,1,0,32.1V1.1A1.1,1.1,0,0,1,1.1,0h24a1.1,1.1,0,0,1,1.1,1.1v31A1.1,1.1,0,0,1,25.1,33.2ZM1.1.2a.9.9,0,0,0-.9.9v31a.9.9,0,0,0,.9.9h24a.9.9,0,0,0,.9-.9V1.1a.9.9,0,0,0-.9-.9Z"/><rect class="cls-3" x="3.1" y="3.1" width="20" height="26" rx="0.5"/><path class="cls-2" d="M7.6.1v4a1,1,0,0,0,1,1h9a1,1,0,0,0,1-1V.1Zm10,4h-9v-3h9Z"/><rect class="cls-2" x="9.21" y="10.64" width="8.89" height="0.5"/><rect class="cls-2" x="15.37" y="8.94" width="6" height="0.5"/><rect class="cls-2" x="9.21" y="8.94" width="4.53" height="0.5"/><rect class="cls-2" x="18.01" y="15.76" width="3.36" height="0.5"/><rect class="cls-2" x="9.21" y="15.76" width="7.16" height="0.5"/><rect class="cls-2" x="14.74" y="14.06" width="6.64" height="0.5"/><rect class="cls-2" x="9.21" y="14.06" width="3.89" height="0.5"/><rect class="cls-2" x="9.21" y="19.18" width="12.07" height="0.5"/><rect class="cls-2" x="13.1" y="20.88" width="4.18" height="0.5"/><rect class="cls-2" x="9.21" y="20.88" width="2.25" height="0.5"/><rect class="cls-2" x="9.21" y="24.3" width="10.07" height="0.5"/><rect class="cls-2" x="13.55" y="26" width="2.73" height="0.5"/><rect class="cls-2" x="9.21" y="26" width="2.71" height="0.5"/><polygon class="cls-1" points="5.54 11.6 3.93 9.99 4.64 9.29 5.54 10.18 7.55 8.17 8.26 8.88 5.54 11.6"/><polygon class="cls-1" points="5.54 16.72 3.93 15.12 4.64 14.41 5.54 15.3 7.55 13.29 8.26 14 5.54 16.72"/><polygon class="cls-1" points="5.54 21.72 3.93 20.12 4.64 19.41 5.54 20.3 7.55 18.3 8.26 19 5.54 21.72"/><polygon class="cls-1" points="5.54 26.96 3.93 25.36 4.64 24.65 5.54 25.55 7.55 23.54 8.26 24.25 5.54 26.96"/><path class="cls-3" d="M29,21c-3,0-2,2.83-5.38,7.25-.17.23-.83,1-1,1.23-1.62-2.25-3.44-4.76-3.71-6.08a32.75,32.75,0,0,0-1.21-5.32,30.48,30.48,0,0,0-1.93-4c-.29-.42-.67-1.4-1.08-.93-.68.8.05,2.24.35,2.92a10.81,10.81,0,0,0,1.1,1.72A2.52,2.52,0,0,0,15,17.17c-1.06-.31-1.26-.27-1.53.11s-.1,1.1-.48,1.31-.33,1.21-.33,1.21a2,2,0,0,0,.06,1.43A1.56,1.56,0,0,0,14,22.1c.52.09-.47,1.87.42,2.34,2.72,1.42,2.93,14,7.1,14,2.41,0,5.23-1.72,8-7.15C32.55,25.37,32.27,21,29,21Z"/><path d="M29,20.87c-1.84,0-2.25,1-2.94,2.7a18.31,18.31,0,0,1-2.53,4.6l-.45.55-.45.55C21,27.09,19.26,24.64,19,23.38c-.16-.77-.29-1.48-.41-2.11a15.37,15.37,0,0,0-.8-3.25c-.12-.25-.26-.56-.4-.9A20.74,20.74,0,0,0,15.84,14l-.18-.3c-.21-.38-.46-.81-.77-.81a.4.4,0,0,0-.32.18c-.69.8-.07,2.18.26,2.91l.07.14a6.83,6.83,0,0,0,.64,1.1A2.93,2.93,0,0,0,15,17a4.19,4.19,0,0,0-1-.21.73.73,0,0,0-.65.37,1.59,1.59,0,0,0-.21.69c0,.27-.06.5-.21.58-.54.29-.44,1.12-.41,1.31a2.07,2.07,0,0,0,.07,1.51,1.7,1.7,0,0,0,1.43.94c.1,0,0,.37,0,.65-.09.58-.21,1.36.39,1.67,1.11.59,1.81,3.23,2.55,6,1,3.94,2.12,8,4.6,8,2.94,0,5.67-2.43,8.1-7.22,2.05-4,2.65-7.49,1.62-9.28A2.49,2.49,0,0,0,29,20.87Zm.46,10.38c-2.39,4.71-5,7.09-7.88,7.09-2.29,0-3.39-4.16-4.36-7.82-.75-2.86-1.47-5.57-2.68-6.2-.43-.23-.33-.85-.25-1.39s.14-.9-.21-1a1.47,1.47,0,0,1-1.24-.79,1.78,1.78,0,0,1-.05-1.33v-.08s-.15-.84.27-1.07c.27-.14.31-.46.35-.77a1.23,1.23,0,0,1,.17-.57A.47.47,0,0,1,14,17.1a3.67,3.67,0,0,1,1,.2,2.3,2.3,0,0,1,1.08.61l.19-.17A11.28,11.28,0,0,1,15.12,16l-.06-.14c-.31-.68-.88-2-.3-2.63a.19.19,0,0,1,.13-.08c.17,0,.4.41.55.67l.2.33a20.53,20.53,0,0,1,1.52,3c.14.34.28.65.4.91a14.9,14.9,0,0,1,.79,3.18c.11.63.24,1.34.4,2.11.28,1.32,2,3.71,3.66,6l.18.25.1-.14.54-.67c.19-.23.37-.45.45-.56a18.43,18.43,0,0,0,2.57-4.66c.67-1.64,1-2.54,2.71-2.54a2.24,2.24,0,0,1,2.09,1.11C32,23.94,31.42,27.31,29.42,31.25Z"/><path class="cls-2" d="M14.39,18.13l0,.27a1,1,0,0,1,1.08.52.52.52,0,0,1,0,.57c-.13.19-.49.22-1,.08-1.35-.38-1.28-1.25-1.28-1.28l-.25,0s-.11,1.13,1.46,1.57a2.07,2.07,0,0,0,.59.1.78.78,0,0,0,.65-.27.83.83,0,0,0,0-.88A1.31,1.31,0,0,0,14.39,18.13Z"/><path class="cls-2" d="M14.92,20.07c.06.14.17.57,0,.77s-.42.16-.83,0a1.86,1.86,0,0,1-1.33-1.15l-.25.07A2.12,2.12,0,0,0,14,21.14a1.9,1.9,0,0,0,.54.09.69.69,0,0,0,.55-.21A1.17,1.17,0,0,0,15.16,20Z"/><path class="cls-3" d="M15.69,15.5c-.43-.13-1.29.74-.95,1.69.73,2-1,3.32.74,5.48l1.81-2.86s-.57-2-.75-2.42S15.91,15.57,15.69,15.5Z"/><path d="M16.43,16.76c-.36-1-.52-1.33-.71-1.38a.84.84,0,0,0-.79.35,1.52,1.52,0,0,0-.31,1.51,4,4,0,0,1,.06,2.18,3.58,3.58,0,0,0,.71,3.34l.19-.17a3.37,3.37,0,0,1-.66-3.13,4.19,4.19,0,0,0-.06-2.32,1.24,1.24,0,0,1,.25-1.23c.21-.23.43-.32.54-.29a5.71,5.71,0,0,1,.55,1.23,6.06,6.06,0,0,0,.23.6c.14.28.54,1.69.74,2.4l.24-.08c0-.08-.57-2.07-.75-2.44A5,5,0,0,1,16.43,16.76Z"/><path class="cls-3" d="M48,20.6c-1.84,0-5.43,3.38-4,6,0,0,3.32,4.77,2.68,5.19-3,1.94-7.2,6.85-8.22,7.67-1.72,1.4-5.53-.83-6.77,1s-2.45,2-2.45,3.59c0,1.34,4.25,1.73,4.85.68s1.55-1.37,4.3-1.8a3.57,3.57,0,0,0,2.25-.77c2.13-1.33,10.1-3.89,11.47-8.54C52.78,31.5,50.59,20.6,48,20.6Z"/><path d="M48,20.47c-1.22,0-3,1.37-3.9,2.92a3.34,3.34,0,0,0-.18,3.3c1.16,1.66,2.85,4.36,2.74,5a.08.08,0,0,1,0,0,47.91,47.91,0,0,0-6.51,6c-.78.82-1.41,1.47-1.71,1.72a2.62,2.62,0,0,1-1.69.46,12.61,12.61,0,0,1-1.59-.13,14.44,14.44,0,0,0-1.57-.13,2.23,2.23,0,0,0-2,.81,9.45,9.45,0,0,1-1.33,1.53,2.76,2.76,0,0,0-1.14,2.14c0,1,1.79,1.41,3.07,1.41.49,0,1.67-.06,2-.67.5-.89,1.52-1.31,4.21-1.73l.47-.05a3.27,3.27,0,0,0,1.83-.73,21.38,21.38,0,0,1,2.17-1.09c3.29-1.54,8.27-3.87,9.35-7.53.53-1.82-.87-9.44-2.81-12.17C49,20.81,48.5,20.47,48,20.47Zm4,13.11c-1,3.54-6,5.84-9.21,7.36-.92.44-1.72.81-2.2,1.11a3.14,3.14,0,0,1-1.72.7l-.49,0c-2.78.44-3.84.89-4.39,1.86-.19.33-.87.54-1.79.54-1.36,0-2.82-.46-2.82-1.15a2.5,2.5,0,0,1,1.06-1.95,9.07,9.07,0,0,0,1.36-1.57,1.91,1.91,0,0,1,1.75-.69,14.62,14.62,0,0,1,1.54.12,12.93,12.93,0,0,0,1.62.13,2.75,2.75,0,0,0,1.84-.52c.32-.26.95-.91,1.74-1.73a47.32,47.32,0,0,1,6.47-5.93.32.32,0,0,0,.13-.21c.16-.9-2.48-4.73-2.77-5.16a3.07,3.07,0,0,1,.18-3c.91-1.64,2.67-2.78,3.68-2.78.4,0,.82.3,1.25.91C51.12,24.27,52.55,31.85,52,33.58Z"/><path d="M30.41,38s-4.14,6-4.14,12H48.86c0-3.48-1.68-10.32-3.68-13Z"/><path d="M26.27,50s14.64.23,19.6-13L30.41,38S26.27,44,26.27,50Z"/><path d="M34.13,13.6s-.11,3.59-3,4.9-2.2,4.78-.7,4.78c0,0,0,1.85,1.31,1.85s1-6.52,3.53-6.52c1,0,.25-4.68.25-4.68Z"/><path class="cls-1" d="M48.08,20c-3.49,0-6-1.65-10.21-1.65-3.72,0-6.43,1.65-8.73,1.65-1.4,0-.52,5.31-.52,5.31-.69,2.46-.7,4.86-.17,6.07C30,35,28.22,37,29.53,38.7c.86,1.12,13.76,1.58,16.37,0,1-.57.31-1,.31-2.52s.54-7.16.54-8.37C46.75,27.86,48.68,20,48.08,20Z"/><path class="cls-3" d="M40.34,9.77s.66-3.59-.93-4.89S33.46,4.46,33,7c-.16.87-.44,2.31-.67,3.92-.38,2.55.37,5,3.14,5a6.74,6.74,0,0,1-.37,2.79S35,20.33,36,20.9a24.72,24.72,0,0,1,.36,3.91s1-3.75,1.31-3.8a6.56,6.56,0,0,0,3.68-2.36s-.85-1-.85-5.2a2.82,2.82,0,0,0,1.17-1.84A1.41,1.41,0,0,0,40.34,9.77Z"/><path d="M40.49,9.66c.1-.69.47-3.68-1-4.88a3.39,3.39,0,0,0-2.16-.63c-1.91,0-4.11,1-4.43,2.8,0,.2-.08.43-.12.69-.16.84-.37,2-.55,3.23A5.27,5.27,0,0,0,33,15,3,3,0,0,0,35.38,16a6.12,6.12,0,0,1-.36,2.6v.05c0,.07-.16,1.71.89,2.32a25.3,25.3,0,0,1,.31,3.81l0,.81.22-.78a24,24,0,0,1,1.23-3.7,6.58,6.58,0,0,0,3.74-2.41l.06-.09-.07-.08s-.8-1-.81-5a3,3,0,0,0,1.17-1.88,1.64,1.64,0,0,0-.21-1.32A1.57,1.57,0,0,0,40.49,9.66Zm1,1.92a2.68,2.68,0,0,1-1.11,1.75l-.06,0v.08c0,3.59.6,4.87.81,5.19a6.37,6.37,0,0,1-3.55,2.24c-.08,0-.3.06-1.19,3.13-.14-3.09-.32-3.19-.39-3.23-.86-.48-.79-1.85-.78-2.05a6.82,6.82,0,0,0,.36-2.84v-.12H35.5a2.86,2.86,0,0,1-2.31-1,5,5,0,0,1-.71-3.89c.18-1.23.39-2.38.54-3.22l.13-.7c.28-1.61,2.35-2.58,4.18-2.58a3.25,3.25,0,0,1,2,.57c1.5,1.24.88,4.73.88,4.76l0,.14.14,0a1.29,1.29,0,0,1,1.2,1.68Z"/><path class="cls-2" d="M36,8l-.22.13c.11.22.37.25.7.29a2.31,2.31,0,0,1,1.21.43l.16-.22a2.47,2.47,0,0,0-1.33-.47C36.25,8.1,36,8.08,36,8Z"/><path class="cls-2" d="M33.75,8.13a2.33,2.33,0,0,0-1.13.48l.16.22a2,2,0,0,1,1-.43c.25-.05.46-.08.58-.3L34.15,8C34.09,8.07,34,8.09,33.75,8.13Z"/><path class="cls-2" d="M34.35,10.54a.55.55,0,0,0-.37.34l.24.1s.06-.16.17-.18.26.08.43.27l.19-.18C34.77,10.62,34.55,10.5,34.35,10.54Z"/><path class="cls-2" d="M36.77,9.31a.29.29,0,0,0,0,.41.28.28,0,0,0,.4,0,.31.31,0,0,0,0-.42A.28.28,0,0,0,36.77,9.31Z"/><path class="cls-2" d="M36.68,9.22a.43.43,0,0,0-.12.31.41.41,0,0,0,.13.29.39.39,0,0,0,.28.11.42.42,0,0,0,.29-.73A.41.41,0,0,0,36.68,9.22Zm.4.39a.15.15,0,0,1-.22,0,.12.12,0,0,1,0-.1.19.19,0,0,1,0-.12A.18.18,0,0,1,37,9.35a.18.18,0,0,1,.1,0,.15.15,0,0,1,0,.22Z"/><path class="cls-2" d="M33.47,9.31a.3.3,0,0,0,0,.41.28.28,0,0,0,.4,0,.3.3,0,0,0,0-.42A.28.28,0,0,0,33.47,9.31Z"/><path class="cls-2" d="M33.38,9.22a.43.43,0,0,0-.12.31.46.46,0,0,0,.13.29.43.43,0,0,0,.28.11A.44.44,0,0,0,34,9.8a.47.47,0,0,0,.11-.31A.39.39,0,0,0,34,9.2.41.41,0,0,0,33.38,9.22Zm.41.39a.15.15,0,0,1-.22,0,.12.12,0,0,1,0-.1.21.21,0,0,1,0-.12.16.16,0,0,1,.11-.05.21.21,0,0,1,.11,0,.15.15,0,0,1,0,.11A.12.12,0,0,1,33.79,9.61Z"/><path class="cls-2" d="M40.33,10.36l0,.26a.66.66,0,0,1,.51.16.75.75,0,0,1,.15.66l.26,0a1,1,0,0,0-.23-.88A.87.87,0,0,0,40.33,10.36Z"/><path class="cls-2" d="M40.1,11.62l.23.11a.7.7,0,0,1,.77-.33l0-.26A.91.91,0,0,0,40.1,11.62Z"/><path d="M49.37,18.17c-3.12-1.09-3.25-1.4-3.8-4-.47-2.21.92-9.21-3.41-9.21a5.23,5.23,0,0,0-3.42-2.74c-4.44-1.09-7,2.5-6,6.18l.06-.08c.37-.55,2.53-3.44,5.82-3,0,0-1.24,4.66,1.3,4.55,2.3-.1,2,2.23.58,3.67,0,4.22.85,5.2.85,5.2l0,0c2.4.49,4.35,1.3,6.79,1.3.11,0,.13.24.11.63.76.14,1.48,1.21,2.1,2.69l.17.09s2.1-.17.54-2.41C51,21,52.49,19.25,49.37,18.17Z"/><path class="cls-2" d="M34.44,13.36h0A.64.64,0,0,1,34,13l-.2.16a.88.88,0,0,0,.69.44h0c.52,0,1-.61,1.52-1.34l-.21-.16C35.38,12.65,34.87,13.36,34.44,13.36Z"/><path class="cls-3" d="M35.76,32c1.07,0,.31-6.79.31-6.79S34.69,32,35.76,32Z"/><path class="cls-3" d="M37.06,37.14c1.2-.09-.49-11.92-.49-11.92S35.85,37.23,37.06,37.14Z"/></g></g></svg>